<svg width="129" height="66" viewBox="0 0 129 66" fill="none" xmlns="http://www.w3.org/2000/svg">
<path d="M25.2768 38.3028L24.1059 36.5223H24.6879L25.5223 37.78L26.3496 36.5223H26.9386L25.7677 38.3028V39.8714H25.2768V38.3028Z" fill="white"/>
<path d="M29.575 36.4728C29.7994 36.4728 30.0097 36.5152 30.213 36.6071C30.4164 36.6989 30.5847 36.819 30.7319 36.9745C30.8791 37.1299 30.9983 37.3136 31.0895 37.5256C31.1736 37.7376 31.2227 37.9566 31.2227 38.1898C31.2227 38.4229 31.1806 38.649 31.0895 38.8539C30.9983 39.0588 30.8862 39.2426 30.7319 39.398C30.5847 39.5534 30.4094 39.6806 30.206 39.7654C30.0027 39.8573 29.7923 39.8997 29.568 39.8997C29.3436 39.8997 29.1332 39.8573 28.9299 39.7654C28.7266 39.6736 28.5583 39.5534 28.411 39.398C28.2638 39.2426 28.1446 39.0588 28.0605 38.8539C27.9763 38.649 27.9343 38.4229 27.9343 38.1898C27.9343 37.9566 27.9763 37.7376 28.0605 37.5256C28.1516 37.3136 28.2638 37.1299 28.4181 36.9745C28.5653 36.819 28.7406 36.6989 28.9439 36.6071C29.1473 36.5152 29.3576 36.4728 29.582 36.4728H29.575ZM29.575 39.4404C29.7362 39.4404 29.8835 39.4051 30.0237 39.3415C30.164 39.2779 30.2832 39.186 30.3883 39.073C30.4935 38.9599 30.5706 38.8257 30.6337 38.6773C30.6968 38.5219 30.7249 38.3594 30.7249 38.1898C30.7249 38.0202 30.6968 37.8506 30.6337 37.7022C30.5776 37.5539 30.4935 37.4196 30.3883 37.3066C30.2832 37.1935 30.164 37.1017 30.0237 37.0381C29.8835 36.9745 29.7362 36.9392 29.575 36.9392C29.4137 36.9392 29.2665 36.9745 29.1262 37.0381C28.986 37.1017 28.8668 37.1935 28.7616 37.3066C28.6565 37.4196 28.5793 37.5539 28.5162 37.7022C28.4531 37.8506 28.4251 38.0131 28.4251 38.1898C28.4251 38.3664 28.4531 38.5219 28.5162 38.6773C28.5793 38.8327 28.6565 38.9599 28.7616 39.073C28.8668 39.186 28.986 39.2779 29.1262 39.3415C29.2665 39.4051 29.4137 39.4404 29.575 39.4404Z" fill="white"/>
<path d="M34.8407 38.6844C34.8407 38.8539 34.8057 39.0165 34.7425 39.1648C34.6794 39.3132 34.5883 39.4475 34.4831 39.5605C34.3779 39.6736 34.2447 39.7583 34.0975 39.8219C33.9502 39.8855 33.789 39.9209 33.6277 39.9209C33.4664 39.9209 33.2982 39.8855 33.1579 39.8219C33.0107 39.7583 32.8845 39.6665 32.7723 39.5605C32.6601 39.4545 32.576 39.3203 32.5129 39.1648C32.4427 39.0165 32.4147 38.8539 32.4147 38.6844V36.5223H32.9055V38.6844C32.9055 38.7833 32.9265 38.8822 32.9616 38.9741C33.0037 39.0659 33.0527 39.1436 33.1159 39.2143C33.186 39.2849 33.2561 39.3415 33.3472 39.3839C33.4384 39.4263 33.5295 39.4475 33.6347 39.4475C33.7399 39.4475 33.824 39.4263 33.9152 39.3839C34.0063 39.3415 34.0764 39.2849 34.1395 39.2143C34.2097 39.1436 34.2588 39.0659 34.2938 38.9741C34.3289 38.8822 34.3499 38.7904 34.3499 38.6844V36.5223H34.8407V38.6844Z" fill="white"/>
<path d="M38.8864 39.8643H38.2694L37.2247 38.4229H36.6427V39.8643H36.1519V36.5152H37.4981C37.6313 36.5152 37.7505 36.5435 37.8697 36.5929C37.9819 36.6424 38.0871 36.7131 38.1712 36.7978C38.2624 36.8826 38.3255 36.9816 38.3746 37.1017C38.4237 37.2147 38.4517 37.3419 38.4517 37.4691C38.4517 37.5821 38.4307 37.6811 38.4026 37.78C38.3746 37.8789 38.3185 37.9637 38.2624 38.0414C38.1993 38.1191 38.1292 38.1898 38.045 38.2463C37.9609 38.3028 37.8697 38.3452 37.7716 38.3735L38.8864 39.8573V39.8643ZM37.5051 37.9566C37.5753 37.9566 37.6313 37.9425 37.6944 37.9142C37.7505 37.886 37.8066 37.8506 37.8487 37.8082C37.8908 37.7658 37.9258 37.7093 37.9469 37.6528C37.9679 37.5963 37.9889 37.5256 37.9889 37.4549C37.9889 37.3843 37.9749 37.3207 37.9469 37.2642C37.9188 37.2077 37.8908 37.1511 37.8487 37.1087C37.8066 37.0663 37.7576 37.0239 37.6944 37.0028C37.6313 36.9745 37.5753 36.9604 37.5051 36.9604H36.6497V37.9637H37.5051V37.9566Z" fill="white"/>
<path d="M43.1635 39.8643L41.7892 36.5152H42.3151L43.437 39.2284L44.5588 36.5152H45.0847L43.7104 39.8643H43.1635Z" fill="white"/>
<path d="M47.09 36.925V39.4616H47.3284V39.8714H46.3468V39.4616H46.5922V36.925H46.3468V36.5152H47.3284V36.925H47.09Z" fill="white"/>
<path d="M51.0165 38.9246C51.0165 39.0659 50.9885 39.2002 50.9324 39.3203C50.8763 39.4404 50.7992 39.5464 50.687 39.6382C50.4696 39.8219 50.1892 39.9138 49.8526 39.9138C49.5932 39.9138 49.3548 39.8573 49.1374 39.7513C48.9271 39.6453 48.7728 39.504 48.6677 39.3203L49.0813 39.1012C49.1444 39.2143 49.2426 39.2991 49.3828 39.3627C49.5161 39.4263 49.6773 39.4545 49.8456 39.4545C50.2943 39.4545 50.5257 39.2779 50.5257 38.9317C50.5257 38.8681 50.5117 38.8116 50.4907 38.7621C50.4696 38.7126 50.4276 38.6702 50.3855 38.6278C50.2733 38.536 50.07 38.4441 49.7825 38.3735C49.6072 38.3311 49.46 38.2816 49.3338 38.2251C49.2075 38.1686 49.1094 38.1121 49.0252 38.0343C48.8289 37.8718 48.7308 37.6599 48.7308 37.3984C48.7308 37.2642 48.7588 37.1441 48.8079 37.0239C48.857 36.9109 48.9341 36.812 49.0252 36.7201C49.1234 36.6353 49.2356 36.5718 49.3618 36.5294C49.495 36.487 49.6353 36.4658 49.7895 36.4658C50.0139 36.4658 50.2242 36.5082 50.4206 36.6C50.6169 36.6848 50.7571 36.812 50.8623 36.9745L50.4837 37.2077C50.3925 37.0946 50.2873 37.0169 50.1681 36.9745C50.0489 36.9321 49.9227 36.9038 49.7965 36.9038C49.7054 36.9038 49.6142 36.918 49.5371 36.9462C49.46 36.9816 49.3899 37.0169 49.3408 37.0593C49.2987 37.0946 49.2636 37.1441 49.2426 37.2006C49.2216 37.2571 49.2146 37.3136 49.2146 37.3772C49.2146 37.4196 49.2146 37.462 49.2356 37.5044C49.2496 37.5468 49.2777 37.5892 49.3267 37.6387C49.3688 37.6811 49.4389 37.7305 49.5301 37.7729C49.6212 37.8153 49.7404 37.8577 49.9017 37.9001C50.091 37.9495 50.2453 37.999 50.3715 38.0555C50.4977 38.1121 50.6029 38.1756 50.694 38.2534C50.8974 38.4229 51.0025 38.649 51.0025 38.9246H51.0165Z" fill="white"/>
<path d="M53.1902 36.925V39.4616H53.4285V39.8714H52.4469V39.4616H52.6923V36.925H52.4469V36.5152H53.4285V36.925H53.1902Z" fill="white"/>
<path d="M56.4436 36.4728C56.6679 36.4728 56.8783 36.5152 57.0816 36.6071C57.2849 36.6989 57.4532 36.819 57.6005 36.9745C57.7477 37.1299 57.8669 37.3136 57.9581 37.5256C58.0422 37.7376 58.0913 37.9566 58.0913 38.1898C58.0913 38.4229 58.0492 38.649 57.9581 38.8539C57.8669 39.0588 57.7547 39.2426 57.6005 39.398C57.4532 39.5534 57.2779 39.6806 57.0746 39.7654C56.8713 39.8573 56.6609 39.8997 56.4365 39.8997C56.2122 39.8997 56.0018 39.8573 55.7985 39.7654C55.5951 39.6736 55.4269 39.5534 55.2796 39.398C55.1324 39.2426 55.0132 39.0588 54.929 38.8539C54.8449 38.649 54.8028 38.4229 54.8028 38.1898C54.8028 37.9566 54.8449 37.7376 54.929 37.5256C55.0202 37.3136 55.1324 37.1299 55.2866 36.9745C55.4339 36.819 55.6092 36.6989 55.8125 36.6071C56.0158 36.5152 56.2262 36.4728 56.4506 36.4728H56.4436ZM56.4436 39.4404C56.6048 39.4404 56.7521 39.4051 56.8923 39.3415C57.0325 39.2779 57.1517 39.186 57.2569 39.073C57.3621 38.9599 57.4392 38.8257 57.5023 38.6773C57.5654 38.5219 57.5935 38.3594 57.5935 38.1898C57.5935 38.0202 57.5654 37.8506 57.5023 37.7022C57.4462 37.5539 57.3621 37.4196 57.2569 37.3066C57.1517 37.1935 57.0325 37.1017 56.8923 37.0381C56.7521 36.9745 56.6048 36.9392 56.4436 36.9392C56.2823 36.9392 56.135 36.9745 55.9948 37.0381C55.8546 37.1017 55.7354 37.1935 55.6302 37.3066C55.525 37.4196 55.4479 37.5539 55.3848 37.7022C55.3217 37.8506 55.2936 38.0131 55.2936 38.1898C55.2936 38.3664 55.3217 38.5219 55.3848 38.6773C55.4479 38.8327 55.525 38.9599 55.6302 39.073C55.7354 39.186 55.8546 39.2779 55.9948 39.3415C56.135 39.4051 56.2823 39.4404 56.4436 39.4404Z" fill="white"/>
<path d="M62.13 36.5223V39.8714H61.6322L59.7811 37.3066V39.8714H59.2692V36.5223H59.7881L61.6462 39.1083V36.5223H62.137H62.13Z" fill="white"/>
<path d="M63.7567 40.472H63.3781L63.5323 39.3132H64.0582L63.7567 40.472Z" fill="white"/>
<path d="M67.1153 36.4728C67.3396 36.4728 67.55 36.5152 67.7533 36.6071C67.9566 36.6989 68.1319 36.819 68.2792 36.9745C68.4264 37.1299 68.5456 37.3136 68.6298 37.5256C68.7139 37.7376 68.763 37.9566 68.763 38.1898C68.763 38.4229 68.7209 38.649 68.6298 38.8539C68.5386 39.0588 68.4264 39.2426 68.2722 39.398C68.1179 39.5534 67.9496 39.6806 67.7463 39.7654C67.543 39.8573 67.3326 39.8997 67.1082 39.8997C66.8839 39.8997 66.6735 39.8573 66.4702 39.7654C66.2668 39.6736 66.0916 39.5534 65.9513 39.398C65.8041 39.2426 65.6849 39.0588 65.6007 38.8539C65.5096 38.649 65.4675 38.4229 65.4675 38.1898C65.4675 37.9566 65.5096 37.7376 65.6007 37.5256C65.6849 37.3136 65.8041 37.1299 65.9513 36.9745C66.1056 36.819 66.2739 36.6989 66.4772 36.6071C66.6805 36.5152 66.8909 36.4728 67.1153 36.4728ZM67.1153 39.4404C67.2695 39.4404 67.4238 39.4051 67.564 39.3415C67.7042 39.2779 67.8234 39.186 67.9286 39.073C68.0338 38.9599 68.1109 38.8257 68.174 38.6773C68.2301 38.5219 68.2652 38.3594 68.2652 38.1898C68.2652 38.0202 68.2371 37.8506 68.174 37.7022C68.1109 37.5539 68.0338 37.4196 67.9286 37.3066C67.8234 37.1935 67.7042 37.1017 67.564 37.0381C67.4238 36.9745 67.2765 36.9392 67.1153 36.9392C66.954 36.9392 66.8067 36.9745 66.6665 37.0381C66.5263 37.1017 66.4071 37.1935 66.3019 37.3066C66.1967 37.4196 66.1196 37.5539 66.0565 37.7022C65.9934 37.8506 65.9653 38.0131 65.9653 38.1898C65.9653 38.3664 65.9934 38.5219 66.0565 38.6773C66.1196 38.8327 66.1967 38.9599 66.3019 39.073C66.4071 39.186 66.5263 39.2779 66.6665 39.3415C66.8067 39.4051 66.954 39.4404 67.1153 39.4404Z" fill="white"/>
<path d="M72.381 38.6844C72.381 38.8539 72.3529 39.0165 72.2898 39.1648C72.2267 39.3132 72.1356 39.4475 72.0304 39.5605C71.9252 39.6736 71.792 39.7583 71.6448 39.8219C71.4975 39.8855 71.3433 39.9209 71.175 39.9209C71.0067 39.9209 70.8524 39.8855 70.7052 39.8219C70.558 39.7583 70.4317 39.6665 70.3196 39.5605C70.2074 39.4545 70.1232 39.3203 70.0601 39.1648C69.997 39.0094 69.962 38.8539 69.962 38.6844V36.5223H70.4598V38.6844C70.4598 38.7833 70.4808 38.8822 70.5159 38.9741C70.5509 39.0659 70.607 39.1436 70.6701 39.2143C70.7333 39.2849 70.8104 39.3415 70.9015 39.3839C70.9927 39.4263 71.0838 39.4475 71.182 39.4475C71.2802 39.4475 71.3783 39.4263 71.4625 39.3839C71.5536 39.3415 71.6237 39.2849 71.6938 39.2143C71.757 39.1436 71.806 39.0659 71.8481 38.9741C71.8832 38.8822 71.9042 38.7904 71.9042 38.6844V36.5223H72.395V38.6844H72.381Z" fill="white"/>
<path d="M76.4267 39.8643H75.8167L74.772 38.4229H74.19V39.8643H73.6992V36.5152H75.0454C75.1786 36.5152 75.2978 36.5435 75.417 36.5929C75.5362 36.6424 75.6344 36.7131 75.7255 36.7978C75.8097 36.8826 75.8798 36.9816 75.9289 37.1017C75.978 37.2147 76.006 37.3419 76.006 37.4691C76.006 37.5821 75.985 37.6811 75.9569 37.78C75.9219 37.8789 75.8728 37.9637 75.8167 38.0414C75.7536 38.1191 75.6835 38.1898 75.5993 38.2463C75.5152 38.3028 75.424 38.3452 75.3259 38.3735L76.4407 39.8573L76.4267 39.8643ZM75.0454 37.9566C75.1085 37.9566 75.1716 37.9425 75.2277 37.9142C75.2908 37.886 75.3399 37.8506 75.382 37.8082C75.424 37.7658 75.4521 37.7093 75.4801 37.6528C75.5012 37.5892 75.5152 37.5256 75.5152 37.4549C75.5152 37.3843 75.5012 37.3207 75.4801 37.2642C75.4521 37.2077 75.417 37.1511 75.382 37.1087C75.3399 37.0663 75.2908 37.0239 75.2277 37.0028C75.1716 36.9745 75.1085 36.9604 75.0454 36.9604H74.19V37.9637H75.0454V37.9566Z" fill="white"/>
<path d="M81.7415 38.9246C81.7415 39.0659 81.7135 39.2002 81.6574 39.3203C81.6013 39.4404 81.5171 39.5464 81.412 39.6382C81.1946 39.8219 80.9212 39.9138 80.5846 39.9138C80.3182 39.9138 80.0868 39.8573 79.8694 39.7513C79.6591 39.6453 79.4978 39.504 79.3996 39.3203L79.8133 39.1012C79.8764 39.2143 79.9746 39.2991 80.1078 39.3627C80.241 39.4263 80.4023 39.4545 80.5776 39.4545C81.0263 39.4545 81.2577 39.2779 81.2577 38.9317C81.2577 38.8681 81.2437 38.8116 81.2227 38.7621C81.2016 38.7126 81.1666 38.6702 81.1175 38.6278C81.0053 38.536 80.802 38.4441 80.5145 38.3735C80.3392 38.3311 80.1919 38.2816 80.0657 38.2251C79.9465 38.1686 79.8414 38.1121 79.7642 38.0343C79.5679 37.8718 79.4697 37.6599 79.4697 37.3984C79.4697 37.2642 79.4908 37.1441 79.5469 37.0239C79.596 36.9109 79.6731 36.812 79.7642 36.7201C79.8624 36.6353 79.9746 36.5718 80.1008 36.5294C80.227 36.487 80.3743 36.4658 80.5285 36.4658C80.7529 36.4658 80.9702 36.5082 81.1596 36.6C81.3489 36.6848 81.4961 36.812 81.5943 36.9745L81.2156 37.2077C81.1245 37.0946 81.0193 37.0169 80.9001 36.9745C80.7809 36.9321 80.6547 36.9038 80.5215 36.9038C80.4303 36.9038 80.3392 36.918 80.2621 36.9462C80.1849 36.9816 80.1218 37.0169 80.0657 37.0593C80.0237 37.0946 79.9886 37.1441 79.9746 37.2006C79.9536 37.2571 79.9465 37.3136 79.9465 37.3772C79.9465 37.4196 79.9465 37.462 79.9676 37.5044C79.9816 37.5468 80.0097 37.5892 80.0587 37.6387C80.1078 37.6811 80.1709 37.7305 80.2621 37.7729C80.3532 37.8153 80.4794 37.8577 80.6337 37.9001C80.823 37.9495 80.9772 37.999 81.1035 38.0555C81.2297 38.1121 81.3419 38.1756 81.426 38.2534C81.6293 38.4229 81.7345 38.649 81.7345 38.9246H81.7415Z" fill="white"/>
<path d="M83.6767 36.9604H82.7792V36.5152H85.072V36.9604H84.1675V39.8643H83.6697V36.9604H83.6767Z" fill="white"/>
<path d="M88.9775 39.8643H88.3675L87.3228 38.4229H86.7408V39.8643H86.25V36.5152H87.5962C87.7295 36.5152 87.8487 36.5435 87.9678 36.5929C88.0871 36.6424 88.1852 36.7131 88.2764 36.7978C88.3605 36.8826 88.4306 36.9816 88.4797 37.1017C88.5288 37.2147 88.5568 37.3419 88.5568 37.4691C88.5568 37.5821 88.5358 37.6811 88.5078 37.78C88.4727 37.8789 88.4236 37.9637 88.3675 38.0414C88.3044 38.1191 88.2343 38.1898 88.1501 38.2463C88.066 38.3028 87.9749 38.3452 87.8767 38.3735L88.9915 39.8573L88.9775 39.8643ZM87.5962 37.9566C87.6593 37.9566 87.7224 37.9425 87.7785 37.9142C87.8416 37.886 87.8907 37.8506 87.9328 37.8082C87.9749 37.7658 88.0029 37.7093 88.031 37.6528C88.052 37.5892 88.066 37.5256 88.066 37.4549C88.066 37.3843 88.052 37.3207 88.031 37.2642C88.0029 37.2077 87.9678 37.1511 87.9328 37.1087C87.8907 37.0663 87.8416 37.0239 87.7785 37.0028C87.7224 36.9745 87.6593 36.9604 87.5962 36.9604H86.7408V37.9637H87.5962V37.9566Z" fill="white"/>
<path d="M90.4009 39.8643H89.868L91.2493 36.5152H91.7892L93.1705 39.8643H92.6376L92.2029 38.8186H90.8286L90.4009 39.8643ZM91.0179 38.3594H92.0136L91.5157 37.1511L91.0179 38.3594Z" fill="white"/>
<path d="M94.9374 36.9604H94.0399V36.5152H96.3327V36.9604H95.4282V39.8643H94.9304V36.9604H94.9374Z" fill="white"/>
<path d="M99.53 36.5223V36.9674H97.9875V37.8789H99.3618V38.3382H97.9875V39.4121H99.53V39.8714H97.4967V36.5223H99.53Z" fill="white"/>
<path d="M102.699 38.0767H103.604V39.3061C103.45 39.4899 103.274 39.6312 103.064 39.7442C102.854 39.8573 102.615 39.9138 102.37 39.9138C102.145 39.9138 101.935 39.8714 101.732 39.7795C101.528 39.6877 101.36 39.5676 101.213 39.4121C101.066 39.2567 100.946 39.073 100.862 38.8681C100.771 38.6632 100.729 38.4371 100.729 38.2039C100.729 37.9707 100.771 37.7517 100.862 37.5397C100.946 37.3278 101.066 37.1441 101.213 36.9886C101.36 36.8332 101.528 36.7131 101.732 36.6212C101.935 36.5294 102.145 36.487 102.37 36.487C102.573 36.487 102.769 36.5294 102.952 36.6141C103.134 36.6919 103.302 36.8049 103.45 36.9321L103.155 37.3066C103.05 37.1935 102.931 37.1087 102.797 37.0381C102.664 36.9674 102.517 36.9392 102.363 36.9392C102.208 36.9392 102.054 36.9745 101.914 37.0381C101.774 37.1087 101.655 37.2006 101.549 37.3136C101.444 37.4267 101.367 37.5609 101.304 37.7164C101.241 37.8718 101.213 38.0343 101.213 38.2039C101.213 38.3735 101.241 38.536 101.304 38.6914C101.36 38.8469 101.444 38.9811 101.549 39.0942C101.655 39.2072 101.774 39.2991 101.914 39.3627C102.047 39.4333 102.201 39.4616 102.363 39.4616C102.51 39.4616 102.65 39.4333 102.776 39.3768C102.903 39.3203 103.022 39.2426 103.12 39.1436V38.5431H102.699V38.0767Z" fill="white"/>
<path d="M105.89 38.3028L104.719 36.5223H105.301L106.135 37.78L106.962 36.5223H107.551L106.38 38.3028V39.8714H105.89V38.3028Z" fill="white"/>
<path d="M15.1521 13.6649C14.4369 12.9442 13.5815 12.4214 12.5719 12.0893C11.5692 11.7572 10.4403 11.5876 9.19926 11.5876C7.87406 11.5876 6.65404 11.8491 5.53218 12.3648C4.41032 12.8806 3.4357 13.5872 2.61534 14.4845C1.79498 15.3748 1.15692 16.4205 0.694152 17.6217C0.231384 18.8228 0 20.1017 0 21.4583C0 22.8149 0.231384 24.1008 0.694152 25.3161C1.15692 26.5314 1.79498 27.5771 2.61534 28.4745C3.4357 29.3647 4.4033 30.0713 5.53218 30.5942C6.65404 31.117 7.88107 31.3714 9.19926 31.3714C10.3912 31.3714 11.4851 31.1665 12.4947 30.7496C13.4974 30.3327 14.3879 29.7816 15.1521 29.0892V29.4919C15.1521 30.5871 14.9839 31.5127 14.6543 32.2687C14.3248 33.0318 13.876 33.6606 13.3081 34.1694C12.7401 34.6781 12.074 35.0384 11.3028 35.2645C10.5385 35.4906 9.71812 35.6037 8.84167 35.6037C8.18257 35.6037 7.52348 35.5401 6.87841 35.427C6.23334 35.3069 5.62333 35.1374 5.05539 34.9254C4.48744 34.7134 3.98261 34.4591 3.54789 34.1694C3.11316 33.8726 2.77661 33.5405 2.53821 33.166V38.324C3.49179 38.8821 4.56457 39.3202 5.74954 39.6452C6.94152 39.9632 8.21062 40.1257 9.55685 40.1257C11.1415 40.1257 12.656 39.9137 14.1004 39.4898C15.5448 39.0658 16.8419 38.2745 18.0059 37.1299C18.6439 36.4869 19.1347 35.7945 19.4923 35.0526C19.8499 34.3036 20.1094 33.4628 20.2636 32.516C20.4249 31.5692 20.523 30.5023 20.5581 29.3153C20.6002 28.1283 20.6142 26.7787 20.6142 25.2596V12.1529H15.9374L15.1451 13.672L15.1521 13.6649ZM14.8717 23.2176C14.6894 23.8041 14.3949 24.334 14.0022 24.8145C13.6096 25.2949 13.1047 25.6906 12.4947 25.9944C11.8847 26.2983 11.1625 26.4537 10.3141 26.4537C9.62697 26.4537 8.98891 26.3265 8.41396 26.0722C7.83199 25.8178 7.32716 25.4645 6.88542 25.0123C6.4507 24.5601 6.10713 24.0302 5.85471 23.4367C5.60229 22.8361 5.47608 22.1931 5.47608 21.5007C5.47608 20.8083 5.60229 20.1653 5.85471 19.5647C6.10713 18.9641 6.4507 18.4413 6.88542 17.9891C7.32014 17.5369 7.83199 17.1765 8.41396 16.908C8.99592 16.6395 9.62697 16.5053 10.3141 16.5053C11.1345 16.5053 11.8497 16.6537 12.4527 16.9434C13.0627 17.2401 13.5605 17.6146 13.9602 18.0809C14.3598 18.5473 14.6543 19.0843 14.8506 19.6778C15.047 20.2783 15.1451 20.886 15.1451 21.4936C15.1451 22.0518 15.054 22.6241 14.8647 23.2106L14.8717 23.2176Z" fill="url(#paint0_linear_4791_5555)"/>
<path d="M38.1994 12.4779C36.8041 11.6653 33.9433 11.2767 32.0221 11.9056C31.4191 12.1034 30.8722 12.3366 30.3954 12.6475C29.9186 12.9513 29.512 13.2975 29.1684 13.6861C28.8248 14.0747 28.5233 14.4775 28.2569 14.9014L27.738 12.1458H22.7808V31.972H28.2569V21.4583C28.2569 20.7659 28.4181 20.1158 28.7337 19.5223C29.0492 18.9217 29.4769 18.406 30.0028 17.982C30.5286 17.5581 31.1597 17.226 31.8889 16.9858C32.6181 16.7455 33.6418 16.5053 34.8969 16.689C35.9136 13.997 38.2064 12.485 38.2064 12.485L38.1994 12.4779Z" fill="url(#paint1_linear_4791_5555)"/>
<path d="M52.8326 14.647C51.9071 13.7002 50.8203 12.9513 49.5792 12.4072C48.3382 11.8632 47.013 11.5876 45.6107 11.5876C44.2083 11.5876 42.8481 11.8632 41.607 12.4072C40.366 12.9513 39.2792 13.7002 38.3536 14.647C37.4281 15.5938 36.6919 16.6961 36.152 17.9608C35.6121 19.2256 35.3386 20.5822 35.3386 22.0165C35.3386 23.4508 35.6121 24.8074 36.152 26.0722C36.6919 27.3369 37.4281 28.4462 38.3536 29.393C39.2792 30.3398 40.366 31.0817 41.607 31.6328C42.8481 32.1769 44.1873 32.4524 45.6107 32.4524C47.034 32.4524 48.3312 32.1769 49.5792 31.6328C50.8203 31.0887 51.9071 30.3398 52.8326 29.393C53.7582 28.4462 54.4944 27.344 55.0343 26.0722C55.5742 24.8074 55.8476 23.4508 55.8476 22.0165C55.8476 20.5822 55.5742 19.2256 55.0343 17.9608C54.4944 16.6961 53.7582 15.5868 52.8326 14.647ZM49.9999 24.4329C49.7475 25.083 49.404 25.6482 48.9692 26.1145C48.5345 26.5809 48.0297 26.9483 47.4617 27.2097C46.8938 27.4782 46.2768 27.6054 45.6177 27.6054C44.9586 27.6054 44.3345 27.4711 43.7526 27.2097C43.1706 26.9412 42.6588 26.5738 42.224 26.1145C41.7893 25.6482 41.4458 25.09 41.1933 24.4329C40.9409 23.7829 40.8147 23.0551 40.8147 22.2567C40.8147 21.4583 40.9409 20.7093 41.1933 20.0169C41.4458 19.3245 41.7893 18.7168 42.224 18.201C42.6588 17.6853 43.1706 17.2684 43.7526 16.9646C44.3345 16.6607 44.9586 16.5053 45.6177 16.5053C46.2768 16.5053 46.8938 16.6607 47.4617 16.9646C48.0297 17.2684 48.5345 17.6853 48.9692 18.201C49.404 18.7239 49.7475 19.3245 49.9999 20.0169C50.2524 20.7093 50.3786 21.4583 50.3786 22.2567C50.3786 23.0551 50.2524 23.7829 49.9999 24.4329Z" fill="url(#paint2_linear_4791_5555)"/>
<path d="M77.2542 26.5738L73.2926 12.1458H68.728L64.7594 26.4961L60.6787 12.1458H55.0483L60.9521 31.972H67.8586L70.7123 22.4192L71.0278 19.5788L71.3083 22.4192L74.162 31.972H81.1035L87.0144 12.1458H81.377L77.2542 26.5738Z" fill="url(#paint3_linear_4791_5555)"/>
<path d="M95.7929 7.7086H90.3168V12.1458L88.4938 12.923L87.4982 17.0635H90.3168V26.0156C90.3168 27.2945 90.4921 28.3685 90.8497 29.2305C91.2073 30.0996 91.6911 30.792 92.2941 31.3078C92.9041 31.8236 93.5913 32.191 94.3555 32.403C95.1198 32.6149 95.9261 32.7209 96.7745 32.7209C97.5178 32.7209 98.254 32.6502 98.9972 32.5019C99.7405 32.3535 100.442 32.1769 101.101 31.9649V27.3652C100.357 27.6619 99.6213 27.8032 98.878 27.8032C97.9525 27.8032 97.2023 27.5489 96.6343 27.0401C96.0664 26.5314 95.7789 25.8107 95.7789 24.871V17.0494H101.094V12.1317H95.7789V7.69447L95.7929 7.7086Z" fill="url(#paint4_linear_4791_5555)"/>
<path d="M122.577 17.9608C122.115 16.6961 121.47 15.5868 120.656 14.647C119.836 13.7002 118.861 12.9513 117.739 12.4072C116.617 11.8632 115.404 11.5876 114.107 11.5876C112.971 11.5876 111.962 11.7643 111.071 12.1246C110.188 12.485 109.395 13.0007 108.708 13.6649L108.666 2.79092L105.855 0L103.19 2.79092V31.9649H108.666V21.854C108.666 20.9496 108.792 20.1653 109.045 19.4941C109.297 18.8299 109.634 18.2788 110.062 17.8336C110.489 17.3956 110.98 17.0635 111.534 16.8374C112.095 16.6113 112.677 16.4982 113.287 16.4982C113.897 16.4982 114.528 16.6678 115.096 16.9999C115.664 17.332 116.162 17.77 116.589 18.3212C117.017 18.8652 117.347 19.5011 117.585 20.2218C117.823 20.9425 117.943 21.6773 117.943 22.4192C117.943 23.1611 117.936 24.115 117.922 25.196C117.908 26.2771 117.901 27.3228 117.901 28.3332V45.3118H123.257V22.0165C123.257 20.5751 123.026 19.2256 122.563 17.9608H122.577Z" fill="url(#paint5_linear_4791_5555)"/>
<path d="M49.9579 47.9332C49.4741 47.3185 48.8641 46.8663 48.1208 46.5907C47.3776 46.3081 46.5642 46.1739 45.6738 46.1739C44.6921 46.1739 43.7876 46.3646 42.9673 46.7462C42.1399 47.1277 41.4247 47.6506 40.8147 48.3147C40.2047 48.9789 39.7279 49.7491 39.3843 50.6393C39.0408 51.5296 38.8725 52.4764 38.8725 53.4797C38.8725 54.483 39.0408 55.4369 39.3843 56.3201C39.7279 57.2104 40.2047 57.9805 40.8147 58.6447C41.4247 59.3089 42.1469 59.8317 42.9673 60.2133C43.7947 60.5948 44.6921 60.7856 45.6738 60.7856C46.4871 60.7856 47.2724 60.6655 48.0227 60.4182C48.7729 60.1779 49.418 59.6904 49.9509 58.9626L50.3365 60.4464H53.646V46.5554H50.3365L49.9509 47.9261L49.9579 47.9332ZM48.7519 56.4049C48.0577 57.0337 47.2093 57.3446 46.2067 57.3446C45.7088 57.3446 45.239 57.2457 44.8043 57.0337C44.3696 56.8288 43.984 56.5533 43.6474 56.207C43.3108 55.8608 43.0514 55.4581 42.8691 54.9918C42.6868 54.5254 42.5887 54.0238 42.5887 53.4797C42.5887 52.9357 42.6798 52.4552 42.8691 51.9818C43.0514 51.5084 43.3108 51.0986 43.6474 50.7524C43.984 50.4062 44.3626 50.1306 44.8043 49.9257C45.239 49.7208 45.7088 49.6148 46.2067 49.6148C46.7045 49.6148 47.1743 49.6855 47.609 49.8268C48.0437 49.9681 48.4223 50.1871 48.7519 50.498C49.0744 50.8089 49.3338 51.2116 49.5302 51.6992C49.7265 52.1938 49.8247 52.8085 49.8247 53.5362C49.8036 54.8222 49.453 55.7831 48.7519 56.4049Z" fill="url(#paint6_linear_4791_5555)"/>
<path d="M61.7655 46.3929C61.3378 46.5201 60.9591 46.6967 60.6226 46.9087C60.293 47.1207 60.0055 47.3679 59.7601 47.6364C59.5147 47.9049 59.3044 48.1946 59.1221 48.4914L58.7645 46.5625H55.2867V60.4535H59.1221V53.0911C59.1221 52.6036 59.2343 52.1514 59.4586 51.7345C59.683 51.3176 59.9775 50.9573 60.3491 50.6535C60.7207 50.3567 61.1625 50.1235 61.6673 49.954C62.1721 49.7844 62.7261 49.6996 63.322 49.6996C63.4903 49.6996 63.6726 49.7137 63.876 49.742C64.0793 49.7703 64.2616 49.8056 64.4299 49.8409C64.6332 49.8974 64.8366 49.9469 65.0399 49.9822L65.4045 46.5342C64.5701 46.3081 63.8409 46.1951 63.2099 46.1951C62.67 46.1951 62.1932 46.2586 61.7655 46.3929Z" fill="url(#paint7_linear_4791_5555)"/>
<path d="M68.0409 43.4536V46.5625L66.288 47.3114L66.0706 50.0105H68.0409V56.2848C68.0409 57.1821 68.1671 57.9311 68.4195 58.5387C68.6719 59.1463 69.0085 59.6339 69.4362 59.9942C69.8639 60.3546 70.3407 60.616 70.8806 60.7644C71.4205 60.9128 71.9814 60.9905 72.5774 60.9905C73.0963 60.9905 73.6151 60.941 74.134 60.835C74.6528 60.7361 75.1437 60.6089 75.6064 60.4605V57.2316C75.0876 57.4365 74.5687 57.5424 74.0498 57.5424C73.4048 57.5424 72.8789 57.3658 72.4792 57.0055C72.0796 56.6522 71.8832 56.1435 71.8832 55.4863V50.0034H75.6064V46.5625H71.8832V43.4536H68.0409Z" fill="url(#paint8_linear_4791_5555)"/>
<path d="M87.8277 47.6223C87.2738 47.2125 86.6848 46.9299 86.0538 46.7815C85.4227 46.6331 84.8548 46.5554 84.3359 46.5554C83.6908 46.5554 83.0878 46.6543 82.5339 46.8522C81.98 47.05 81.4822 47.3044 81.0404 47.6223L80.4865 46.5554H77.2051V60.4464H81.0404V52.321C81.0404 51.9111 81.1246 51.5579 81.2929 51.2611C81.4611 50.9644 81.6645 50.7241 81.9169 50.5333C82.1693 50.3496 82.4358 50.2154 82.7232 50.1306C83.0107 50.0458 83.2772 50.0034 83.5155 50.0034C83.81 50.0034 84.1115 50.0458 84.406 50.1306C84.7005 50.2154 84.967 50.3426 85.1983 50.5192C85.4297 50.6959 85.612 50.9361 85.7523 51.2328C85.8925 51.5296 85.9626 51.897 85.9626 52.321V60.4464H89.798V52.1584C89.798 50.9997 89.6087 50.06 89.23 49.3322C88.8514 48.6044 88.3886 48.0321 87.8277 47.6223Z" fill="url(#paint9_linear_4791_5555)"/>
<path d="M103.33 48.449C102.72 47.7707 101.984 47.2196 101.136 46.7956C100.28 46.3717 99.3408 46.1668 98.3031 46.1668C97.2654 46.1668 96.3679 46.3646 95.4984 46.7532C94.629 47.1418 93.8647 47.6718 93.2056 48.3359C92.5465 49.0001 92.0347 49.7773 91.6631 50.6605C91.2914 51.5508 91.1091 52.4835 91.1091 53.4726C91.1091 54.4618 91.3125 55.4298 91.7192 56.3272C92.1258 57.2245 92.6797 58.0017 93.3879 58.6518C94.0961 59.3018 94.9165 59.8246 95.863 60.2062C96.8096 60.5877 97.8263 60.7785 98.9201 60.7785C99.9228 60.7785 100.862 60.6513 101.739 60.3899C102.622 60.1285 103.401 59.754 104.088 59.2665L102.812 56.8853C102.272 57.0902 101.704 57.2598 101.101 57.387C100.498 57.5213 99.7966 57.5848 99.0042 57.5848C98.2119 57.5848 97.4687 57.3658 96.7816 56.9277C96.0944 56.4897 95.5685 55.9527 95.1969 55.3168H105.034C105.181 54.6809 105.259 54.0874 105.259 53.5221C105.259 52.5894 105.09 51.678 104.761 50.7877C104.424 49.9045 103.954 49.1202 103.344 48.4349L103.33 48.449ZM95.0497 52.328C95.274 51.5225 95.6807 50.8725 96.2837 50.3708C96.8867 49.8692 97.5598 49.6148 98.2961 49.6148C99.0323 49.6148 99.6703 49.8692 100.238 50.3708C100.813 50.8725 101.213 51.5296 101.43 52.328H95.0357H95.0497Z" fill="url(#paint10_linear_4791_5555)"/>
<path d="M112.957 46.3717C112.53 46.5059 112.151 46.6755 111.814 46.8875C111.478 47.0995 111.19 47.3467 110.952 47.6152C110.714 47.8837 110.496 48.1734 110.314 48.4702L109.956 46.5342H106.479V60.4464H110.321V53.0699C110.321 52.5824 110.433 52.1302 110.658 51.7062C110.882 51.2823 111.176 50.929 111.548 50.6252C111.92 50.3284 112.361 50.0953 112.866 49.9257C113.378 49.7561 113.925 49.6713 114.521 49.6713C114.689 49.6713 114.872 49.6855 115.075 49.7137C115.278 49.742 115.468 49.7773 115.629 49.8127C115.832 49.8692 116.035 49.9186 116.239 49.954L116.603 46.5059C115.769 46.2798 115.033 46.1739 114.402 46.1739C113.862 46.1739 113.385 46.2374 112.957 46.3717Z" fill="url(#paint11_linear_4791_5555)"/>
<path d="M122.626 57.0055L128.832 49.1132V46.5413H117.915L117.585 50.1235L123.264 49.9893L117.585 57.2033V60.4535H129V57.0055H122.626Z" fill="url(#paint12_linear_4791_5555)"/>
<path d="M35.5981 48.3289C34.9951 47.6647 34.2799 47.1418 33.4455 46.7603C32.6111 46.3788 31.7066 46.188 30.725 46.188C29.8555 46.188 29.0842 46.2869 28.4181 46.4989C27.752 46.7038 27.149 47.05 26.6162 47.5375L26.0622 46.5837H22.7878V66H26.6162V59.2594C27.0439 59.7045 27.6328 60.079 28.3901 60.3616C29.1474 60.6513 29.9256 60.7926 30.725 60.7926C31.7066 60.7926 32.6111 60.6019 33.4455 60.2203C34.2799 59.8388 34.9951 59.3159 35.5981 58.6518C36.2011 57.9876 36.6708 57.2174 37.0144 56.3272C37.358 55.444 37.5263 54.4972 37.5263 53.4868C37.5263 52.4764 37.358 51.5296 37.0144 50.6464C36.6708 49.7632 36.2011 48.986 35.5981 48.3218V48.3289ZM33.5436 54.9988C33.3473 55.4651 33.0879 55.8679 32.7654 56.2141C32.4428 56.5603 32.0642 56.8359 31.6295 57.0408C31.1947 57.2457 30.725 57.3517 30.2271 57.3517C29.7293 57.3517 29.2595 57.274 28.8248 57.1114C28.3901 56.956 28.0115 56.7087 27.6889 56.3837C27.3664 56.0587 27.107 55.6559 26.9247 55.1825C26.7424 54.7091 26.6442 54.1439 26.6442 53.4938C26.6442 52.8014 26.7354 52.215 26.9247 51.7204C27.107 51.2258 27.3664 50.823 27.6889 50.5192C28.0115 50.2083 28.3901 49.9893 28.8248 49.848C29.2595 49.7067 29.7293 49.636 30.2271 49.636C30.725 49.636 31.1947 49.742 31.6295 49.9469C32.0642 50.1518 32.4428 50.4274 32.7654 50.7736C33.0879 51.1198 33.3473 51.5296 33.5436 52.003C33.74 52.4764 33.8381 52.9781 33.8381 53.5009C33.8381 54.0238 33.74 54.5466 33.5436 55.013V54.9988Z" fill="url(#paint13_linear_4791_5555)"/>
<defs>
<linearGradient id="paint0_linear_4791_5555" x1="1.05174" y1="33.2084" x2="112.186" y2="33.2084" gradientUnits="userSpaceOnUse">
<stop stop-color="#050DEB"/>
<stop offset="1" stop-color="#FF00E2"/>
</linearGradient>
<linearGradient id="paint1_linear_4791_5555" x1="1.05174" y1="33.2084" x2="112.186" y2="33.2084" gradientUnits="userSpaceOnUse">
<stop stop-color="#050DEB"/>
<stop offset="1" stop-color="#FF00E2"/>
</linearGradient>
<linearGradient id="paint2_linear_4791_5555" x1="1.05174" y1="33.2084" x2="112.186" y2="33.2084" gradientUnits="userSpaceOnUse">
<stop stop-color="#050DEB"/>
<stop offset="1" stop-color="#FF00E2"/>
</linearGradient>
<linearGradient id="paint3_linear_4791_5555" x1="1.05174" y1="33.2084" x2="112.186" y2="33.2084" gradientUnits="userSpaceOnUse">
<stop stop-color="#050DEB"/>
<stop offset="1" stop-color="#FF00E2"/>
</linearGradient>
<linearGradient id="paint4_linear_4791_5555" x1="1.05174" y1="33.2084" x2="112.186" y2="33.2084" gradientUnits="userSpaceOnUse">
<stop stop-color="#050DEB"/>
<stop offset="1" stop-color="#FF00E2"/>
</linearGradient>
<linearGradient id="paint5_linear_4791_5555" x1="1.05174" y1="33.2084" x2="112.186" y2="33.2084" gradientUnits="userSpaceOnUse">
<stop stop-color="#050DEB"/>
<stop offset="1" stop-color="#FF00E2"/>
</linearGradient>
<linearGradient id="paint6_linear_4791_5555" x1="1.05174" y1="33.2084" x2="112.186" y2="33.2084" gradientUnits="userSpaceOnUse">
<stop stop-color="#050DEB"/>
<stop offset="1" stop-color="#FF00E2"/>
</linearGradient>
<linearGradient id="paint7_linear_4791_5555" x1="1.05174" y1="33.2084" x2="112.186" y2="33.2084" gradientUnits="userSpaceOnUse">
<stop stop-color="#050DEB"/>
<stop offset="1" stop-color="#FF00E2"/>
</linearGradient>
<linearGradient id="paint8_linear_4791_5555" x1="1.05174" y1="33.2084" x2="112.186" y2="33.2084" gradientUnits="userSpaceOnUse">
<stop stop-color="#050DEB"/>
<stop offset="1" stop-color="#FF00E2"/>
</linearGradient>
<linearGradient id="paint9_linear_4791_5555" x1="1.05174" y1="33.2084" x2="112.186" y2="33.2084" gradientUnits="userSpaceOnUse">
<stop stop-color="#050DEB"/>
<stop offset="1" stop-color="#FF00E2"/>
</linearGradient>
<linearGradient id="paint10_linear_4791_5555" x1="1.05174" y1="33.2084" x2="112.186" y2="33.2084" gradientUnits="userSpaceOnUse">
<stop stop-color="#050DEB"/>
<stop offset="1" stop-color="#FF00E2"/>
</linearGradient>
<linearGradient id="paint11_linear_4791_5555" x1="1.05174" y1="33.2084" x2="112.186" y2="33.2084" gradientUnits="userSpaceOnUse">
<stop stop-color="#050DEB"/>
<stop offset="1" stop-color="#FF00E2"/>
</linearGradient>
<linearGradient id="paint12_linear_4791_5555" x1="1.05174" y1="33.2084" x2="112.186" y2="33.2084" gradientUnits="userSpaceOnUse">
<stop stop-color="#050DEB"/>
<stop offset="1" stop-color="#FF00E2"/>
</linearGradient>
<linearGradient id="paint13_linear_4791_5555" x1="1.05174" y1="33.2084" x2="112.186" y2="33.2084" gradientUnits="userSpaceOnUse">
<stop stop-color="#050DEB"/>
<stop offset="1" stop-color="#FF00E2"/>
</linearGradient>
</defs>
</svg>
